<svg xmlns="http://www.w3.org/2000/svg" viewBox="0 0 100 100">
  <rect width="100" height="100" rx="14" fill="#0b0b0c"/>
  <g fill="none" stroke="#d8b25a" stroke-width="3">
    <circle cx="50" cy="50" r="34"/>
    <ellipse cx="50" cy="50" rx="14" ry="34"/>
    <line x1="16" y1="50" x2="84" y2="50"/>
  </g>
  <g fill="none" stroke="#e7c87c" stroke-width="3" stroke-linecap="round">
    <path d="M50,47 C50,43 45,39 38,39 C31,39 26,43 26,47 C26,51 31,55 38,55 C45,55 50,51 50,47"/>
    <path d="M50,47 C50,43 55,39 62,39 C69,39 74,43 74,47 C74,51 69,55 62,55 C55,55 50,51 50,47"/>
  </g>
</svg>
